===================================================================================

				HD DESI ROCKERS RELEASES

===================================================================================

General
Complete name                    : Inkheart.2008.BDRip.6ch.720p.i2009ak.---HD DESI ROCKERS RELEASES---.mkv
Format                           : Matroska
File size                        : 2.11 GiB
Duration                         : 1h 41mn
Overall bit rate                 : 2 968 Kbps
Movie name                       : Inkheart.2008.BDRip.720p.i2009ak.---::HD DESI ROCKERS RELEASES::---
Encoded date                     : UTC 2010-10-18 15:16:13
Writing application              : mkvmerge v2.9.8 ('C'est le bon') built on Aug 13 2009 12:49:06
Writing library                  : libebml v0.7.7 + libmatroska v0.8.1

Video
ID                               : 1
Format                           : AVC
Format/Info                      : Advanced Video Codec
Format profile                   : High@L3.1
Format settings, CABAC           : Yes
Format settings, ReFrames        : 5 frames
Muxing mode                      : Container profile=Unknown@3.1
Codec ID                         : V_MPEG4/ISO/AVC
Duration                         : 1h 41mn
Bit rate                         : 2 589 Kbps
Nominal bit rate                 : 2 551 Kbps
Width                            : 1 280 pixels
Height                           : 544 pixels
Display aspect ratio             : 2.35:1
Original display aspect ratio    : 2.35:1
Frame rate                       : 25.000 fps
Original frame rate              : 23.976 fps
Resolution                       : 24 bits
Colorimetry                      : 4:2:0
Scan type                        : Progressive
Bits/(Pixel*Frame)               : 0.149
Stream size                      : 1.84 GiB (87%)
Writing library                  : x264 core 67 r1137M 1fda882
Encoding settings                : cabac=1 / ref=5 / deblock=1:-1:-1 / analyse=0x3:0x113 / me=umh / subme=9 / psy_rd=1.0:0.0 / mixed_ref=1 / me_range=32 / chroma_me=1 / trellis=2 / 8x8dct=1 / cqm=0 / deadzone=21,11 / chroma_qp_offset=-2 / threads=6 / nr=0 / decimate=1 / mbaff=0 / bframes=4 / b_pyramid=1 / b_adapt=2 / b_bias=0 / direct=3 / wpredb=1 / keyint=250 / keyint_min=25 / scenecut=40 / rc=2pass / bitrate=2551 / ratetol=1.0 / qcomp=0.60 / qpmin=10 / qpmax=51 / qpstep=4 / cplxblur=20.0 / qblur=0.5 / ip_ratio=1.40 / pb_ratio=1.30 / aq=1:1.50
Language                         : English

Audio #1
ID                               : 2
Format                           : AC-3
Format/Info                      : Audio Coding 3
Codec ID                         : A_AC3
Duration                         : 1h 41mn
Bit rate mode                    : Constant
Bit rate                         : 192 Kbps
Channel(s)                       : 6 channels
Channel positions                : Front: L C R, Surround: L R, LFE
Sampling rate                    : 48.0 KHz
Video delay                      : 624ms
Stream size                      : 140 MiB (6%)
Title                            : HINDI TRACK BY --:i2009ak:--
Language                         : Hindi

Audio #2
ID                               : 3
Format                           : MPEG Audio
Format version                   : Version 1
Format profile                   : Layer 3
Format_Settings_Mode             : Joint stereo / MS Stereo
Codec ID                         : A_MPEG/L3
Codec ID/Hint                    : MP3
Duration                         : 1h 41mn
Bit rate mode                    : Constant
Bit rate                         : 128 Kbps
Channel(s)                       : 2 channels
Sampling rate                    : 48.0 KHz
Resolution                       : 16 bits
Video delay                      : 575ms
Stream size                      : 93.1 MiB (4%)
Title                            : ENGLISH TRACK BY --:i2009ak:--
Language                         : English

Text
ID                               : 4
Format                           : UTF-8
Codec ID                         : S_TEXT/UTF8
Codec ID/Info                    : UTF-8 Plain Text

SAMPLE




SCREENSHOTS
 
http://i774.photobucket.com/albums/yy22/i2009ak/INKHEART/vlcsnap-00014.jpg
 
http://i774.photobucket.com/albums/yy22/i2009ak/INKHEART/vlcsnap-00013.jpg
 
http://i774.photobucket.com/albums/yy22/i2009ak/INKHEART/vlcsnap-00012.jpg
 
http://i774.photobucket.com/albums/yy22/i2009ak/INKHEART/vlcsnap-00011.jpg
 
http://i774.photobucket.com/albums/yy22/i2009ak/INKHEART/vlcsnap-00010.jpg
 
http://i774.photobucket.com/albums/yy22/i2009ak/INKHEART/vlcsnap-00009.jpg
 
http://i774.photobucket.com/albums/yy22/i2009ak/INKHEART/vlcsnap-00005.jpg
 
http://i774.photobucket.com/albums/yy22/i2009ak/INKHEART/vlcsnap-00004.jpg
 
http://i774.photobucket.com/albums/yy22/i2009ak/INKHEART/vlcsnap-00003.jpg
 
http://i774.photobucket.com/albums/yy22/i2009ak/INKHEART/vlcsnap-00002.jpg
 
http://i774.photobucket.com/albums/yy22/i2009ak/INKHEART/vlcsnap-00001.jpg